<svg xmlns="http://www.w3.org/2000/svg" width="82" height="82" fill="none"><defs><radialGradient id="A" cx="-70.159" cy="66.292" fx="-70.159" fy="66.292" r="30.571" gradientTransform="matrix(1.0590948,0,0,1.0590948,115.30516,-29.209956)" gradientUnits="userSpaceOnUse"><stop offset=".308" stop-color="#fff" stop-opacity="0"/><stop offset=".958" stop-color="#1ebcf0" stop-opacity=".267"/><stop offset=".995" stop-color="#fff" stop-opacity="0"/></radialGradient></defs><circle cx="41" cy="41" r="32.378" fill="url(#A)"/><path d="M41.001.055C18.442.055.13 18.402.13 41s18.313 40.945 40.871 40.945S81.87 63.598 81.87 41 63.56.055 41.001.055zm0 2.467c21.223 0 38.402 17.212 38.402 38.479s-17.18 38.477-38.402 38.477S2.597 62.267 2.597 41 19.778 2.521 41.001 2.521zM21.678 28.918a1.25 1.25 0 0 0-1.25 1.25v21.664a1.25 1.25 0 0 0 1.25 1.25h35.32a1.25 1.25 0 0 0 1.25-1.25v-4.67h3.324v-1.725-8.875-1.725h-3.324v-4.67a1.25 1.25 0 0 0-1.25-1.25zm1.25 2.5h32.82v19.164h-32.82zm1.504 1.559v16.047h2.021V32.977zm4.971 0v16.047h2.02V32.977zm5.004 0v16.047h2.02V32.977zm5.082 0v16.047h2.02V32.977zm4.938 0v16.047h2.02V32.977z" fill="#00b7ee"/></svg>