<?xml version="1.0" encoding="UTF-8" standalone="no"?>
<svg
   width="59.501331"
   height="68.944031"
   viewBox="0 0 59.501331 68.944031"
   fill="none"
   version="1.1"
   id="svg1"
   sodipodi:docname="line.svg"
   xml:space="preserve"
   inkscape:version="1.4 (86a8ad7, 2024-10-11)"
   xmlns:inkscape="http://www.inkscape.org/namespaces/inkscape"
   xmlns:sodipodi="http://sodipodi.sourceforge.net/DTD/sodipodi-0.dtd"
   xmlns="http://www.w3.org/2000/svg"
   xmlns:svg="http://www.w3.org/2000/svg"><defs
     id="defs1" /><sodipodi:namedview
     id="namedview1"
     pagecolor="#ffffff"
     bordercolor="#000000"
     borderopacity="0.25"
     inkscape:showpageshadow="2"
     inkscape:pageopacity="0.0"
     inkscape:pagecheckerboard="0"
     inkscape:deskcolor="#d1d1d1"
     inkscape:zoom="16"
     inkscape:cx="-0.65625"
     inkscape:cy="48.28125"
     inkscape:window-width="1920"
     inkscape:window-height="1009"
     inkscape:window-x="1912"
     inkscape:window-y="-8"
     inkscape:window-maximized="1"
     inkscape:current-layer="svg1" /><g
     id="g13"
     transform="translate(-8.2493356,-1.7151762)"><path
       id="path7"
       style="fill:#00b7ee;fill-opacity:1;stroke:none;stroke-width:1.7;stroke-linecap:round;stroke-dasharray:none;stroke-opacity:1"
       d="m 37.9375,7.875 -24.375,14.25 V 50 l 24.5,14.1875 24.25,-14.375 v -27.75 z M 47.392578,25.46875 27.533203,45.390625 C 15.77429,32.241309 34.533376,14.127985 47.392578,25.46875 Z m 1.205078,1.197266 C 60.363444,39.840262 41.57416,58.075626 28.732422,46.591797 Z"/><path
       style="fill:#00b7ee;stroke-linecap:round"
       d="m 47.537109,38.375 a 1,1 0 0 0 -1.138672,0.839844 c -0.151922,1.002132 -0.375851,1.641957 -0.576171,1.982422 -0.20032,0.340464 -0.31103,0.385074 -0.451172,0.421875 -0.280284,0.0736 -1.101243,-0.170983 -2.089844,-0.603516 -0.988601,-0.432533 -2.165579,-1.030814 -3.513672,-0.662109 -0.674046,0.184352 -1.304089,0.657497 -1.759766,1.34375 -0.455676,0.686252 -0.783469,1.578126 -1.033203,2.761718 a 1,1 0 0 0 0.771485,1.183594 1,1 0 0 0 1.185547,-0.771484 c 0.216856,-1.027769 0.493128,-1.691321 0.742187,-2.066407 0.24906,-0.375085 0.425292,-0.467932 0.621094,-0.521484 0.391603,-0.107104 1.210257,0.138599 2.183594,0.564453 0.973336,0.425855 2.080768,1.053562 3.40039,0.707031 0.659811,-0.173265 1.266442,-0.66268 1.666016,-1.341796 0.399573,-0.679117 0.657154,-1.545666 0.832031,-2.699219 A 1,1 0 0 0 47.537109,38.375 Z"
       id="path2" /><path
       style="fill:#00b7ee;stroke-linecap:round"
       d="M 29.191406,32.46875 A 1,1 0 0 0 28.1875,33.464844 1,1 0 0 0 29.183594,34.46875 L 36.652344,34.5 A 1,1 0 0 0 37.65625,33.503906 1,1 0 0 0 36.660156,32.5 Z"
       id="path3" /><path
       style="fill:#00b7ee;stroke-linecap:round"
       d="m 29.285156,29.03125 a 1,1 0 0 0 -1.003906,0.996094 1,1 0 0 0 0.996094,1.003906 l 7.46875,0.03125 A 1,1 0 0 0 37.75,30.068359 1,1 0 0 0 36.755859,29.0625 Z"
       id="path3-4" /><path
       style="fill:none;stroke:#abcad5;stroke-width:1.25;stroke-linecap:round;stroke-dasharray:none;stroke-opacity:0.992157"
       d="M 38.0625,2.4375 8.875,19.4375 8.890625,53.25 37.9375,69.9375 67.106694,53.106694 67.125,19.1875 Z"
       id="path4"
       sodipodi:nodetypes="ccccccc" /></g><g
     id="path6"
     transform="translate(-8.2493356,-1.7151762)"><path
       style="fill:#ffffff;stroke-linecap:round"
       d="M 48.5,25.5625 27.625,46.5"
       id="path12" /></g></svg>
