<svg xmlns="http://www.w3.org/2000/svg" width="82" height="82" fill="none"><defs><radialGradient id="A" cx="-70.159" cy="66.292" fx="-70.159" fy="66.292" r="30.571" gradientTransform="matrix(1.0590948,0,0,1.0590948,115.30516,-29.209956)" gradientUnits="userSpaceOnUse"><stop offset=".308" stop-color="#fff" stop-opacity="0"/><stop offset=".958" stop-color="#1ebcf0" stop-opacity=".267"/><stop offset=".995" stop-color="#fff" stop-opacity="0"/></radialGradient></defs><path d="M35.576 20.284l-1.158 6.32h-2.912v2.5h2.453l-2.367 12.904h-3.09v2.5h2.631l-1.381 7.535-1.32 6.877.066-.045-.25 1.365a1.25 1.25 0 1 0 2.459.451l.695-3.795 9.797-6.674 9.246 6.113.875 4.445v.002l2.453-.48V60.3l-.037-.186-3.041-15.607h2.379v-2.5h-2.867l-2.373-12.178.006-.006-.043-.182-.105-.539h2.377v-2.5h-2.865l-1.213-6.227zm2.08 2.518l6.27.057.73 3.746h-.154-7.543zm-1.145 6.303h8.506L40.8 33.299l-4.291-4.176zm9.188 2.85l1.471 7.547-4.578-4.457zm-9.744.119l3.072 2.99-4.428 4.402zm4.863 4.732l5.346 5.203H35.587zm-3.729 7.703h8.057l-3.969 2.703zm-3.48.695l5.338 3.529-6.91 4.707.18-.984zm14.707.172l1.467 7.527-6.352-4.201zM41.001.055C18.442.055.13 18.402.13 41s18.313 40.945 40.871 40.945S81.87 63.598 81.87 41 63.56.055 41.001.055zm0 2.467c21.223 0 38.402 17.212 38.402 38.479s-17.18 38.477-38.402 38.477S2.597 62.267 2.597 41 19.778 2.521 41.001 2.521z" fill="#00b7ee"/><circle cx="41" cy="41" r="32.378" fill="url(#A)"/></svg>