<svg xmlns="http://www.w3.org/2000/svg" width="82" height="82" fill="none"><defs><radialGradient id="A" cx="-70.159" cy="66.292" fx="-70.159" fy="66.292" r="30.571" gradientTransform="matrix(1.0590948,0,0,1.0590948,115.30516,-29.209956)" gradientUnits="userSpaceOnUse"><stop offset=".308" stop-color="#fff" stop-opacity="0"/><stop offset=".958" stop-color="#1ebcf0" stop-opacity=".267"/><stop offset=".995" stop-color="#fff" stop-opacity="0"/></radialGradient></defs><circle cx="41" cy="41" r="32.378" fill="url(#A)"/><path d="M41.001.055C18.442.055.13 18.402.13 41s18.313 40.945 40.871 40.945S81.87 63.598 81.87 41 63.56.055 41.001.055zm0 2.467c21.223 0 38.402 17.212 38.402 38.479s-17.18 38.477-38.402 38.477S2.597 62.267 2.597 41 19.778 2.521 41.001 2.521zm-.222 20.145a1 1 0 0 0-.395.188L22.8 36.605a1 1 0 0 0 1.232 1.576L41.001 24.91 57.97 38.106a1 1 0 0 0 1.402-.174 1 1 0 0 0-.176-1.404L41.613 22.852a1 1 0 0 0-.834-.186zm.232 5.482a1 1 0 0 0-.393.182l-13.3 10.144a1 1 0 0 0-.393.797v19.086a1 1 0 0 0 1 1h26.301a1 1 0 0 0 1-1V39.122a1 1 0 0 0-.391-.793l-13-9.994a1 1 0 0 0-.824-.186zm.211 2.236l12.004 9.229v17.744h-24.3V39.766zm2.361 7.631l-7.334 8.715 4.039.238-1.834 6.271 7.732-9.061-4.41.053z" fill="#00b7ee"/></svg>