<svg xmlns="http://www.w3.org/2000/svg" width="82" height="82" fill="none"><defs><radialGradient id="A" cx="-70.159" cy="66.292" fx="-70.159" fy="66.292" r="30.571" gradientTransform="matrix(1.0590948,0,0,1.0590948,115.30516,-29.209956)" gradientUnits="userSpaceOnUse"><stop offset=".308" stop-color="#fff" stop-opacity="0"/><stop offset=".958" stop-color="#1ebcf0" stop-opacity=".267"/><stop offset=".995" stop-color="#fff" stop-opacity="0"/></radialGradient></defs><path d="M33.824 24.862a1 1 0 0 0-1 1v5.561a1 1 0 1 0 2 0v-5.561a1 1 0 0 0-1-1zm-8.814 3.043a1 1 0 0 0-.746 1.641l3.232 3.871a1 1 0 0 0 1.535-1.283l-3.232-3.869a1 1 0 0 0-.789-.359zm16.58.117a1 1 0 0 0-.68.352l-3.156 3.758a1 1 0 0 0 1.533 1.287l3.154-3.758a1 1 0 0 0-.852-1.639zm-9.238 4.85c-3.045 0-5.451 2.655-5.451 5.809 0 2.196 1.086 4.407 2.879 5.215l-8.51 11.115a1 1 0 0 0 .777 1.609l7.967.141a1 1 0 0 0 .178.193 1 1 0 0 0 1.34-.168l6.354.111a1 1 0 0 0 .002.002 1 1 0 0 0 1.078.018l8.631.152a1 1 0 0 0 .838-.426l13.75-19.689a1 1 0 0 0-.818-1.572h-9.289a1 1 0 0 0-.66 0h-5.633a1 1 0 0 0-1.025 0h-7.965a1 1 0 0 0-.064.016c-1.139-1.245-2.629-2.525-4.377-2.525zm-6.764 4.014l-4.959.037a1 1 0 1 0 .016 2l4.959-.037a1 1 0 1 0-.016-2zm11.697.496h5.924l-3.168 4.352-5.973-.148zm8.398 0h4.133l-3.041 4.52-4.305-.107zm6.545 0h7.219l-3.32 4.752-6.979-.174zm-26.021 5.215a1 1 0 0 0-.557.162l-4.207 2.742a1 1 0 1 0 1.092 1.676l4.207-2.742a1 1 0 0 0-.34-1.816 1 1 0 0 0-.195-.021zm6.357.951l6.045.15-2.988 4.102-6.211-.133zm8.475.211l4.412.109-2.748 4.084-4.646-.1zm6.785.17l6.93.172-2.828 4.049-6.844-.146zm-19.92 5.705l6.283.137-3.641 5-6.486-.115zm8.719.188l4.752.104-3.35 4.977-5.037-.088zm7.131.154l6.795.145-3.451 4.941-6.689-.117z" fill="#00b7ee"/><circle cx="41" cy="41" r="32.378" fill="url(#A)"/><path d="M41.001.055C18.442.055.13 18.402.13 41s18.313 40.945 40.871 40.945S81.87 63.598 81.87 41 63.56.055 41.001.055zm0 2.467c21.223 0 38.402 17.212 38.402 38.479s-17.18 38.477-38.402 38.477S2.597 62.267 2.597 41 19.778 2.521 41.001 2.521z" fill="#00b7ee"/></svg>